<svg xmlns="http://www.w3.org/2000/svg" width="34" height="34" viewBox="0 0 34 34">
  <g fill="none" fill-rule="evenodd">
    <path fill="#45D43C" d="M16.9349995,0 C7.57592472,0 0,5.8159678 0,12.9718085 L0,21.0176137 C0,28.1931584 7.57592472,33.9894222 16.9349995,33.9894222 C26.2940742,33.9894222 33.8699989,28.1701704 33.8699989,21.0176137 L33.8699989,12.9718085 C33.8699989,5.79297978 26.2940742,0 16.9349995,0 L16.9349995,0 Z"/>
    <path fill="#fff" d="M29.1313516,12.9718085 C29.1313516,13.1360086 29.1083644,13.3002087 29.0361189,13.4184328 C28.9671573,13.5333728 28.8981957,13.6286089 28.8489374,13.6975729 L25.6832714,16.9585871 L28.6617559,16.9585871 C28.7799758,16.9585871 28.8981957,17.0078471 28.9901445,17.0997992 C29.0853772,17.1950352 29.1313516,17.3099753 29.1313516,17.4281994 L29.1313516,18.7418002 C29.1313516,18.8600243 29.0853772,18.9749644 28.9901445,19.0702005 C28.8981957,19.1654365 28.7799758,19.2114126 28.6617559,19.2114126 L17.2633881,19.2344006 C17.1451682,19.2344006 17.0269483,19.1884245 16.9349995,19.0931885 C16.8397668,19.0012364 16.7937924,18.8830123 16.7937924,18.7647883 L16.7937924,17.4511874 C16.7937924,17.3329633 16.8397668,17.2180232 16.9349995,17.1227872 C17.0269483,17.0308351 17.1451682,16.9815751 17.2633881,16.9815751 L22.7277742,16.9815751 L20.3830796,14.0752332 C20.3371052,14.0029851 20.2648597,13.9110331 20.1958981,13.815797 C20.1236527,13.6975729 20.1006655,13.5826329 20.0776782,13.4184328 L20.0776782,11.6352196 C20.0776782,11.5169955 20.1236527,11.4250435 20.1958981,11.3298074 C20.2648597,11.2608434 20.3830796,11.2115833 20.5012995,11.2115833 C20.5472739,11.2115833 20.6162355,11.2115833 20.6654938,11.2345713 C20.7114682,11.2608434 20.7804298,11.3068194 20.8526753,11.3987714 L24.1365612,15.4577981 L28.3793417,11.0243952 C28.4515872,10.9554312 28.4975616,10.9061711 28.543536,10.8831831 C28.5927943,10.8601951 28.6387687,10.8601951 28.7077303,10.8601951 C28.8259502,10.8601951 28.9211829,10.9061711 29.0131317,10.9784192 C29.0853772,11.0473832 29.1313516,11.1656073 29.1313516,11.2838314 L29.1313516,12.9718085 Z M15.3160437,19.3756127 C15.3160437,20.0783891 15.1978238,20.7122015 14.9876551,21.3000379 C14.7774864,21.8845903 14.4490979,22.4001786 14.0024894,22.8238149 C13.5788681,23.2441672 13.0173236,23.5725674 12.3605464,23.8090156 C11.6807821,24.0421797 10.9287722,24.1604038 10.0388391,24.1604038 C9.14562217,24.1604038 8.39689619,24.0421797 7.74011901,23.8090156 C7.08334184,23.5988394 6.54478455,23.2704392 6.12116327,22.8468029 C5.70082588,22.4231667 5.37243729,21.9305663 5.13599751,21.3460139 C4.90284161,20.7581776 4.78462172,20.1243651 4.76163452,19.4215887 C4.76163452,19.2114126 4.73864732,18.9519764 4.73864732,18.6958242 L4.73864732,17.8748237 L4.73864732,17.0538231 C4.73864732,16.794387 4.76163452,16.5382348 4.76163452,16.3247747 C4.78462172,15.6449862 4.90284161,14.9881858 5.13599751,14.4266214 C5.37243729,13.8617731 5.70082588,13.3691727 6.14415048,12.9488205 C6.56777175,12.5251842 7.12931624,12.219772 7.76310621,11.9866078 C8.39689619,11.7534437 9.14562217,11.6352196 10.0158519,11.6352196 C11.0240049,11.6352196 11.8449764,11.7764317 12.5017535,12.0325839 C13.1585307,12.29202 13.6741008,12.5974322 14.071451,12.9718085 C14.4720851,13.3231967 14.7282282,13.6975729 14.8924225,14.0982212 C15.0566167,14.4955855 15.1518494,14.8239857 15.1748366,15.0834219 C15.1748366,15.2246339 15.1288622,15.316586 15.0336295,15.4118221 C14.9416807,15.5037741 14.8234608,15.5530342 14.705241,15.5530342 L13.2997378,15.5530342 C13.1815179,15.5530342 13.063298,15.5300461 12.9943364,15.4577981 C12.9220909,15.3888341 12.8531293,15.316586 12.8301421,15.247622 C12.8071549,15.2016459 12.7349094,15.1064099 12.6429606,14.9422098 C12.5477279,14.7780097 12.3835336,14.6138095 12.1733649,14.4496094 C11.9631962,14.2854093 11.6807821,14.1441972 11.3294063,14.0029851 C10.9780305,13.8880451 10.531422,13.815797 10.0158519,13.815797 C9.14562217,13.815797 8.44287059,14.0522452 7.92730051,14.5185735 C7.41173042,14.9881858 7.12931624,15.5990102 7.10632904,16.3970227 C7.08334184,16.817375 7.08334184,17.2869873 7.08334184,17.8025756 C7.08334184,18.295176 7.10632904,18.7647883 7.12931624,19.2114126 C7.17857453,20.1736252 7.45770483,20.8534136 7.97327491,21.3000379 C8.48884499,21.7433782 9.19488045,21.9568383 10.0618263,21.9568383 C10.4854476,21.9568383 10.8827978,21.9075783 11.2341736,21.8156263 C11.6085366,21.7203902 11.913938,21.5791781 12.1733649,21.369002 C12.429508,21.1588258 12.6429606,20.8993897 12.7841677,20.5480014 C12.9220909,20.1966132 12.9943364,19.7729769 12.9943364,19.2803766 L12.9943364,19.2344006 L10.8598106,19.2344006 C10.7415907,19.2344006 10.6266547,19.1884245 10.531422,19.0931885 C10.4361893,19.0012364 10.3902149,18.8830123 10.3902149,18.7647883 L10.3902149,17.4511874 C10.3902149,17.3329633 10.4361893,17.2180232 10.531422,17.1227872 C10.6266547,17.0308351 10.7415907,16.9815751 10.8598106,16.9815751 L14.8694352,16.9815751 C14.9876551,16.9815751 15.105875,17.0308351 15.1978238,17.1227872 C15.2930565,17.1950352 15.3390309,17.3099753 15.3160437,17.4511874 L15.3160437,19.3756127 Z"/>
  </g>
</svg>
